# xmcd
#
# Track frame offsets: 
#        150
#        22231
#        44607
#        73888
#        93674
#        118922
#        144272
#        167018
#        187030
#        223391
#        251218
#        269580
#
# Disc length: 3910 seconds
#
# Revision: 0
# Processed by: cddbd v1.5.2PL0 Copyright (c) Steve Scherf et al.
# Submitted via: ExactAudioCopy v0.99pb3
#
DISCID=cc0f440c
DTITLE=Fernando Jose Wayra - The Eagle spirit
DYEAR=2007
DGENRE=Native American
TTITLE0=The Eagle Spirit   
TTITLE1=Circle of Friendship
TTITLE2=Wayrapa
TTITLE3=White Feather
TTITLE4=Love Mountain
TTITLE5=A Child Song
TTITLE6=Kullanatajispi
TTITLE7=Flute Dreamer
TTITLE8=The Sunrise
TTITLE9=Ama Jella, Yuya, Sua
TTITLE10=Dance with the Wolves
TTITLE11=Tatanka
EXTD=
EXTT0=
EXTT1=
EXTT2=
EXTT3=
EXTT4=
EXTT5=
EXTT6=
EXTT7=
EXTT8=
EXTT9=
EXTT10=
EXTT11=
PLAYORDER=
